<svg xmlns="http://www.w3.org/2000/svg" viewBox="0 0 500.91 500.97"><defs><style>.cls-1{fill:#f9f9f9;}</style></defs><path class="cls-1" d="M170.59,166.74,43.11,108.53a250.48,250.48,0,0,0,15.3,303.92Z" /><path class="cls-1" d="M228.85,193.34,108.27,457.41A249.32,249.32,0,0,0,249.5,501C366.09,501,464.07,421.35,492,313.5ZM293.5,385A48.5,48.5,0,1,1,342,336.5,48.49,48.49,0,0,1,293.5,385Z"/><path class="cls-1" d="M256.35,132.48,499.91,243.69c-3-113.36-81.37-207.92-186.8-235.52Z" /><path class="cls-1" d="M246.43,0A249.5,249.5,0,0,0,90.63,56.82l107.46,49.06Z" /></svg>